<?xml version="1.0" encoding="UTF-8"?>
<svg id="Ebene_1" xmlns="http://www.w3.org/2000/svg" version="1.1" viewBox="0 0 200.69 248.31">
  <!-- Generator: Adobe Illustrator 29.3.0, SVG Export Plug-In . SVG Version: 2.1.0 Build 146)  -->
  <defs>
    <style>
      .st0 {
        opacity: .2;
      }

      .st0, .st1, .st2, .st3, .st4 {
        fill: #fff;
      }

      .st1 {
        opacity: .6;
      }

      .st1, .st2, .st3, .st4 {
        isolation: isolate;
      }

      .st5 {
        fill: #5e0033;
      }

      .st2 {
        opacity: .7;
      }

      .st3 {
        opacity: .2;
      }

      .st6 {
        fill: green;
      }

      .st4 {
        opacity: .8;
      }
    </style>
  </defs>
  <g>
    <polygon class="st5" points="48.72 195.79 35.83 147.07 41.1 90.08 73.2 66.49 120.56 64.35 164.09 107.83 167.34 148.65 153.72 181.13 130.93 208 85.71 216.96 48.72 195.79"/>
    <polygon class="st4" points="35.83 147.07 41.1 90.08 73.2 66.49 87.11 100.66 35.83 147.07"/>
    <polygon class="st2" points="127.2 115.89 145.61 103.17 120.56 64.35 73.2 66.49 87.11 100.66 127.2 115.89"/>
    <polygon class="st3" points="153.72 181.13 167.34 148.65 164.09 107.83 145.61 103.17 127.2 115.89 153.72 181.13"/>
    <polygon class="st1" points="120.56 64.35 164.09 107.83 145.61 103.17 120.56 64.35"/>
  </g>
  <polygon class="st6" points="89.99 58.09 104.78 32.38 138.39 24.98 118.53 56.03 89.99 58.09"/>
  <polygon class="st0" points="117.97 29.48 118.53 56.03 138.39 24.98 117.97 29.48"/>
</svg>